<?xml version="1.0" encoding="utf-8"?>
<!-- Generator: Adobe Illustrator 22.1.0, SVG Export Plug-In . SVG Version: 6.00 Build 0)  -->
<svg version="1.1" id="Layer_1" xmlns="http://www.w3.org/2000/svg" xmlns:xlink="http://www.w3.org/1999/xlink" x="0px" y="0px"
	 viewBox="0 0 423.3 99.7" style="enable-background:new 0 0 423.3 99.7;" xml:space="preserve">
<g>
	<g>
		<path d="M81.3,73.1c-0.2,0.3-2.1,7.1-6.9,14.2c-4.1,6.2-8.5,12.1-15.3,12.3c-6.6,0.2-8.8-3.9-16.4-3.9s-10.1,3.8-16.4,4.1
			c-6.6,0.3-11.5-6.6-15.8-12.6C2,74.8-4.7,52.1,4.2,36.9c4.4-7.6,12.1-12.3,20.7-12.5c6.5-0.2,12.5,4.3,16.4,4.3s11.4-5.4,19.1-4.6
			c3.3,0.2,12.3,1.3,18.3,9.9c-0.5,0.3-10.9,6.3-10.7,18.9C68.1,68,81.2,73.1,81.3,73.1 M55.3,15.9c3.5-4.3,5.8-10.1,5.2-15.9
			c-5,0.2-11,3.3-14.7,7.6c-3.2,3.8-6,9.8-5.4,15.5C46.2,23.4,51.8,20,55.3,15.9z"/>
	</g>
	<g>
		<path d="M139.2,29.5l-0.9,3.2c-1.4-0.6-3-0.9-4.7-0.9c-2.7,0-4.7,0.8-6.3,2.4c-1.7,1.7-2.5,4.1-2.5,7.1c0,2.8,0.8,5.2,2.4,6.8
			s3.6,2.5,6.5,2.5c1.9,0,3.6-0.3,4.9-0.9l0.6,3.2c-1.4,0.6-3.6,1.1-6.3,1.1c-3.8,0-6.6-1.1-8.8-3.3s-3.3-5.4-3.3-9.2
			c0-3.9,1.3-7.1,3.6-9.5s5.4-3.5,9.2-3.5C136.1,28.4,138,28.7,139.2,29.5z"/>
		<path d="M156.9,43.7c0,0.8,0,1.3-0.2,1.7h-12c0,1.7,0.6,3.2,1.7,4.1c0.9,0.8,2.4,1.3,3.9,1.3c1.7,0,3.3-0.3,4.9-0.8l0.6,2.8
			c-1.7,0.8-3.6,1.1-6,1.1c-2.8,0-4.9-0.8-6.5-2.4c-1.6-1.6-2.4-3.8-2.4-6.6c0-2.7,0.8-4.9,2.2-6.8c1.6-1.9,3.6-2.8,6.3-2.8
			c2.5,0,4.6,0.9,5.8,2.8C156.3,39.6,156.9,41.5,156.9,43.7z M153.1,42.8c0-1.1-0.2-2.2-0.8-3c-0.6-1.1-1.7-1.6-3.2-1.6
			c-1.3,0-2.4,0.5-3.2,1.6c-0.6,0.8-1.1,1.9-1.1,3.2h8.2V42.8z"/>
		<path d="M175.5,53.5h-3.9V43.2c0-3.2-1.3-4.7-3.6-4.7c-1.1,0-2.2,0.5-2.8,1.3c-0.8,0.9-1.1,1.9-1.1,3v10.6h-3.9V40.5
			c0-1.6,0-3.3-0.2-5h3.5l0.2,2.8h0.2c0.5-0.8,1.1-1.6,2.1-2.1c1.1-0.6,2.2-0.9,3.6-0.9c1.7,0,3,0.5,4.1,1.6
			c1.4,1.3,2.1,3.3,2.1,5.8V53.5z"/>
		<path d="M188.8,38.7h-4.4v8.7c0,2.2,0.8,3.3,2.4,3.3c0.6,0,1.3,0,1.7-0.2l0.2,3c-0.8,0.3-1.7,0.5-3.2,0.5c-1.6,0-2.8-0.5-3.6-1.4
			c-0.9-0.9-1.3-2.5-1.3-4.7v-9h-2.7v-3h2.7v-3.3l3.9-1.1v4.4h4.4v2.8H188.8z"/>
		<path d="M201.4,39.1c-0.3,0-0.8-0.2-1.3-0.2c-1.4,0-2.5,0.5-3.3,1.6c-0.6,0.9-0.9,2.1-0.9,3.5v9.3h-3.9V41c0-2.1,0-3.9-0.2-5.7
			h3.5l0.2,3.5h0.2c0.5-1.1,1.1-2.1,2.1-2.8c0.9-0.6,1.9-0.9,2.8-0.9c0.3,0,0.6,0,0.9,0V39.1z"/>
		<path d="M220.3,44.3c0,2.7-0.8,5-2.4,6.8c-1.6,1.7-3.8,2.7-6.5,2.7s-4.7-0.8-6.3-2.5c-1.6-1.7-2.4-3.9-2.4-6.6
			c0-2.8,0.8-5,2.4-6.8c1.6-1.7,3.8-2.7,6.5-2.7s4.7,0.9,6.3,2.5C219.6,39.6,220.3,41.8,220.3,44.3z M216.2,44.5
			c0-1.6-0.3-3-1.1-4.3c-0.8-1.4-2.1-2.1-3.6-2.1s-2.8,0.6-3.6,2.1c-0.6,1.1-1.1,2.5-1.1,4.3c0,1.6,0.3,3,1.1,4.3
			c0.8,1.4,2.1,2.1,3.6,2.1s2.7-0.8,3.6-2.2C215.8,47.5,216.2,46.2,216.2,44.5z"/>
		<path d="M248.3,53.5h-3.5l-0.2-2.8h-0.2c-1.1,2.2-3,3.3-5.7,3.3c-2.2,0-3.9-0.8-5.4-2.5c-1.4-1.7-2.1-3.9-2.1-6.6
			c0-2.8,0.8-5.2,2.4-6.9c1.6-1.7,3.3-2.5,5.5-2.5c2.4,0,4.1,0.8,5,2.4V27.5h3.9v21.3C248.1,50.3,248.1,52.1,248.3,53.5z
			 M244.2,45.9v-2.8c0-0.5,0-0.9-0.2-1.3c-0.2-0.9-0.6-1.7-1.4-2.4c-0.8-0.6-1.6-0.9-2.7-0.9c-1.4,0-2.7,0.6-3.5,1.7
			s-1.3,2.7-1.3,4.4c0,1.7,0.5,3.2,1.3,4.3s2.1,1.7,3.5,1.7c1.3,0,2.4-0.5,3.2-1.4C243.9,48.3,244.2,47.2,244.2,45.9z"/>
		<path d="M257,30.3c0,0.6-0.2,1.3-0.6,1.7c-0.5,0.5-1.1,0.6-1.7,0.6c-0.6,0-1.3-0.2-1.7-0.6c-0.5-0.5-0.6-0.9-0.6-1.7
			c0-0.6,0.2-1.3,0.6-1.7c0.5-0.5,1.1-0.6,1.7-0.6c0.6,0,1.3,0.2,1.7,0.6C256.6,29,257,29.7,257,30.3z M256.5,53.5h-3.9V35.7h3.9
			V53.5z"/>
		<path d="M289,53.5h-4.3l-2.4-7.3h-8l-2.2,7.3H268l7.9-24.8h4.9L289,53.5z M281.7,43.2l-2.1-6.5c-0.2-0.6-0.6-2.2-1.3-4.6l0,0
			c-0.3,1.1-0.6,2.5-1.1,4.6l-2.1,6.5H281.7z"/>
		<path d="M302.9,48.3c0,1.7-0.6,3-1.9,3.9c-1.3,0.9-2.8,1.6-5,1.6c-2.1,0-3.8-0.5-5.2-1.3l0.8-3c1.4,0.8,2.8,1.3,4.4,1.3
			c2.1,0,3-0.8,3-2.2c0-0.6-0.2-1.3-0.6-1.6c-0.5-0.5-1.3-0.8-2.4-1.3c-3.2-1.1-4.7-2.8-4.7-5c0-1.6,0.6-2.8,1.7-3.8
			c1.1-0.9,2.7-1.6,4.6-1.6c1.7,0,3.3,0.3,4.6,1.1l-0.8,2.8c-1.1-0.6-2.4-1.1-3.6-1.1c-0.8,0-1.4,0.2-1.9,0.6
			c-0.5,0.3-0.6,0.9-0.6,1.6c0,0.6,0.3,1.1,0.8,1.6c0.5,0.3,1.3,0.8,2.4,1.3C301.3,44.2,302.9,45.9,302.9,48.3z"/>
		<path d="M317.4,48.3c0,1.7-0.6,3-1.9,3.9c-1.3,0.9-2.8,1.6-5,1.6c-2.1,0-3.8-0.5-5.2-1.3l0.8-3c1.4,0.8,2.8,1.3,4.4,1.3
			c2.1,0,3-0.8,3-2.2c0-0.6-0.2-1.3-0.6-1.6c-0.5-0.5-1.3-0.8-2.4-1.3c-3.2-1.1-4.7-2.8-4.7-5c0-1.6,0.6-2.8,1.7-3.8
			c1.1-0.9,2.7-1.6,4.6-1.6c1.7,0,3.3,0.3,4.6,1.1l-0.8,2.8c-1.1-0.6-2.4-1.1-3.6-1.1c-0.8,0-1.4,0.2-1.9,0.6
			c-0.5,0.3-0.6,0.9-0.6,1.6c0,0.6,0.3,1.1,0.8,1.6c0.5,0.3,1.3,0.8,2.4,1.3C316,44.2,317.4,45.9,317.4,48.3z"/>
		<path d="M325.1,30.3c0,0.6-0.2,1.3-0.6,1.7c-0.5,0.5-1.1,0.6-1.7,0.6c-0.6,0-1.3-0.2-1.7-0.6c-0.5-0.5-0.6-0.9-0.6-1.7
			c0-0.6,0.2-1.3,0.6-1.7c0.5-0.5,1.1-0.6,1.7-0.6c0.6,0,1.3,0.2,1.7,0.6C325,29,325.1,29.7,325.1,30.3z M324.6,53.5h-3.9V35.7h3.9
			V53.5z"/>
		<path d="M340.4,48.3c0,1.7-0.6,3-1.9,3.9c-1.3,0.9-2.8,1.6-5,1.6c-2.1,0-3.8-0.5-5.2-1.3l0.8-3c1.4,0.8,2.8,1.3,4.4,1.3
			c2.1,0,3-0.8,3-2.2c0-0.6-0.2-1.3-0.6-1.6c-0.5-0.5-1.3-0.8-2.4-1.3c-3.2-1.1-4.7-2.8-4.7-5c0-1.6,0.6-2.8,1.7-3.8
			c1.1-0.9,2.7-1.6,4.6-1.6c1.7,0,3.3,0.3,4.6,1.1l-0.8,2.8c-1.1-0.6-2.4-1.1-3.6-1.1c-0.8,0-1.4,0.2-1.9,0.6
			c-0.5,0.3-0.6,0.9-0.6,1.6c0,0.6,0.3,1.1,0.8,1.6c0.5,0.3,1.3,0.8,2.4,1.3C338.8,44.2,340.4,45.9,340.4,48.3z"/>
		<path d="M353,38.7h-4.4v8.7c0,2.2,0.8,3.3,2.4,3.3c0.6,0,1.3,0,1.7-0.2l0.2,3c-0.8,0.3-1.7,0.5-3.2,0.5c-1.6,0-2.8-0.5-3.6-1.4
			c-0.9-0.9-1.3-2.5-1.3-4.7v-9h-2.7v-3h2.7v-3.3l3.9-1.1v4.4h4.4v2.8H353z"/>
		<path d="M370.9,43.7c0,0.8,0,1.3-0.2,1.7h-12c0,1.7,0.6,3.2,1.7,4.1c0.9,0.8,2.4,1.3,3.9,1.3c1.7,0,3.3-0.3,4.9-0.8l0.6,2.8
			c-1.7,0.8-3.6,1.1-6,1.1c-2.8,0-4.9-0.8-6.5-2.4c-1.6-1.6-2.4-3.8-2.4-6.6c0-2.7,0.8-4.9,2.2-6.8c1.6-1.9,3.6-2.8,6.3-2.8
			c2.5,0,4.6,0.9,5.8,2.8C370.2,39.6,370.9,41.5,370.9,43.7z M367.1,42.8c0-1.1-0.2-2.2-0.8-3c-0.6-1.1-1.7-1.6-3.2-1.6
			c-1.3,0-2.4,0.5-3.2,1.6c-0.6,0.8-1.1,1.9-1.1,3.2h8.2V42.8z"/>
		<path d="M389.5,53.5h-3.9V43.2c0-3.2-1.3-4.7-3.6-4.7c-1.1,0-2.2,0.5-2.8,1.3c-0.8,0.9-1.1,1.9-1.1,3v10.6H374V40.5
			c0-1.6,0-3.3-0.2-5h3.5l0.2,2.8h0.2c0.5-0.8,1.1-1.6,2.1-2.1c1.1-0.6,2.2-0.9,3.6-0.9c1.7,0,3,0.5,4.1,1.6
			c1.4,1.3,2.1,3.3,2.1,5.8V53.5z"/>
		<path d="M406.8,53.5h-14.5v-2.4l7.1-9.5c0.5-0.6,1.3-1.6,2.4-2.8H393v-3.2h13.6v2.5l-6.9,9.3c-0.8,0.9-1.6,2.1-2.4,2.8h9.6
			L406.8,53.5L406.8,53.5z"/>
		<path d="M423.3,53.5h-3.6l-0.3-2.1h-0.2c-1.3,1.6-3,2.5-5.2,2.5c-1.7,0-3-0.5-4.1-1.6c-0.9-0.9-1.4-2.2-1.4-3.6
			c0-2.2,0.9-3.8,2.7-5c1.9-1.1,4.4-1.7,7.7-1.7v-0.3c0-2.4-1.3-3.5-3.6-3.5c-1.7,0-3.3,0.5-4.6,1.3l-0.8-2.7
			c1.7-1.1,3.6-1.6,6.2-1.6c4.7,0,6.9,2.5,6.9,7.4v6.6C422.9,51,423.1,52.4,423.3,53.5z M419.1,47.3v-2.7c-4.4,0-6.6,1.1-6.6,3.6
			c0,0.9,0.3,1.6,0.8,2.1c0.5,0.5,1.1,0.6,1.9,0.6c0.9,0,1.7-0.3,2.4-0.8c0.8-0.5,1.3-1.3,1.4-2.1C419.1,47.8,419.1,47.7,419.1,47.3
			z"/>
		<path d="M141.1,95.6h-4.3l-2.4-7.3h-7.9l-2.2,7.3h-4.1l7.9-24.8h4.9L141.1,95.6z M133.9,85.4l-2.1-6.5c-0.2-0.6-0.6-2.2-1.3-4.6
			l0,0c-0.3,1.1-0.6,2.5-1.1,4.6l-2.1,6.5H133.9z"/>
		<path d="M158.7,95.6h-3.5l-0.2-2.7l0,0c-1.3,2.1-3.2,3.2-5.7,3.2c-1.7,0-3.2-0.5-4.3-1.6c-1.3-1.4-1.9-3.3-1.9-6.2V77.8h3.9v9.8
			c0,3.5,1.1,5.2,3.5,5.2c1.7,0,3-0.8,3.6-2.5c0.2-0.5,0.3-0.9,0.3-1.6V77.8h3.9v12.8C158.3,92.3,158.5,93.9,158.7,95.6z"/>
		<path d="M172.2,80.8h-4.4v8.7c0,2.2,0.8,3.3,2.4,3.3c0.6,0,1.3,0,1.7-0.2l0.2,3c-0.8,0.3-1.7,0.5-3.2,0.5c-1.6,0-2.8-0.5-3.6-1.4
			c-0.9-0.9-1.3-2.5-1.3-4.7v-9h-2.7v-3.2h2.7v-3.2l3.9-1.1v4.4h4.4v2.8H172.2z"/>
		<path d="M191.6,86.6c0,2.7-0.8,5-2.4,6.8c-1.6,1.7-3.8,2.7-6.5,2.7c-2.7,0-4.7-0.8-6.3-2.5c-1.6-1.7-2.4-3.9-2.4-6.6
			c0-2.8,0.8-5,2.4-6.8c1.6-1.7,3.8-2.7,6.5-2.7c2.7,0,4.7,0.8,6.3,2.5C190.8,81.7,191.6,83.9,191.6,86.6z M187.5,86.8
			c0-1.6-0.3-3-1.1-4.3c-0.8-1.4-2.1-2.1-3.6-2.1c-1.6,0-2.8,0.6-3.6,2.1c-0.6,1.1-1.1,2.5-1.1,4.3c0,1.6,0.3,3,1.1,4.3
			c0.8,1.4,2.1,2.1,3.6,2.1c1.6,0,2.7-0.8,3.6-2.2C187.1,89.8,187.5,88.4,187.5,86.8z"/>
		<path d="M204.3,81.4c-0.3,0-0.8-0.2-1.3-0.2c-1.4,0-2.5,0.5-3.3,1.6c-0.6,0.9-0.9,2.1-0.9,3.5v9.3h-3.9V83.3c0-2.1,0-3.9-0.2-5.7
			h3.5l0.2,3.5h0.2c0.5-1.1,1.1-2.1,2.1-2.8c0.9-0.6,1.9-0.9,2.8-0.9c0.3,0,0.6,0,0.9,0V81.4z"/>
		<path d="M211.5,72.6c0,0.8-0.2,1.3-0.6,1.7c-0.5,0.5-1.1,0.6-1.7,0.6c-0.6,0-1.3-0.2-1.7-0.6c-0.5-0.5-0.6-0.9-0.6-1.7
			c0-0.6,0.2-1.3,0.6-1.7c0.5-0.5,1.1-0.6,1.7-0.6c0.6,0,1.3,0.2,1.7,0.6C211.4,71.3,211.5,71.8,211.5,72.6z M211,95.6h-3.9V77.8
			h3.9V95.6z"/>
		<path d="M228.7,95.6h-14.5v-2.4l7.1-9.5c0.5-0.6,1.3-1.6,2.4-2.8h-8.8v-3.2h13.7v2.5l-6.9,9.3c-0.8,0.9-1.6,2.1-2.4,2.8h9.6v3.2
			H228.7z"/>
		<path d="M245.3,95.6h-14.5v-2.4l7.1-9.5c0.5-0.6,1.3-1.6,2.4-2.8h-8.8v-3.2H245v2.5l-6.9,9.3c-0.8,0.9-1.6,2.1-2.4,2.8h9.6V95.6z"
			/>
		<path d="M261.7,95.6h-3.6l-0.3-2.1h-0.2c-1.3,1.6-3,2.5-5.2,2.5c-1.7,0-3-0.5-4.1-1.6c-0.9-0.9-1.4-2.2-1.4-3.6
			c0-2.2,0.9-3.8,2.7-5c1.9-1.1,4.4-1.7,7.7-1.7v-0.3c0-2.4-1.3-3.5-3.6-3.5c-1.7,0-3.3,0.5-4.6,1.3l-0.8-2.7
			c1.7-1.1,3.6-1.6,6.2-1.6c4.7,0,6.9,2.5,6.9,7.4v6.6C261.4,93.2,261.5,94.7,261.7,95.6z M257.6,89.6v-2.7c-4.4,0-6.6,1.1-6.6,3.6
			c0,0.9,0.3,1.6,0.8,2.1c0.5,0.5,1.1,0.6,1.9,0.6c0.9,0,1.7-0.3,2.4-0.8c0.8-0.5,1.3-1.3,1.4-2.1C257.6,90.1,257.6,89.8,257.6,89.6
			z"/>
		<path d="M274.8,80.8h-4.4v8.7c0,2.2,0.8,3.3,2.4,3.3c0.6,0,1.3,0,1.7-0.2l0.2,3c-0.8,0.3-1.7,0.5-3.2,0.5c-1.6,0-2.8-0.5-3.6-1.4
			c-0.9-0.9-1.3-2.5-1.3-4.7v-9h-2.7v-3.2h2.7v-3.2l3.9-1.1v4.4h4.4v2.8H274.8z"/>
		<path d="M294,86.6c0,2.7-0.8,5-2.4,6.8c-1.6,1.7-3.8,2.7-6.5,2.7c-2.7,0-4.7-0.8-6.3-2.5c-1.6-1.7-2.4-3.9-2.4-6.6
			c0-2.8,0.8-5,2.4-6.8c1.6-1.7,3.8-2.7,6.5-2.7s4.7,0.8,6.3,2.5C293.2,81.7,294,83.9,294,86.6z M289.9,86.8c0-1.6-0.3-3-1.1-4.3
			c-0.8-1.4-2.1-2.1-3.6-2.1s-2.8,0.6-3.6,2.1c-0.8,1.1-1.1,2.5-1.1,4.3c0,1.6,0.3,3,1.1,4.3c0.8,1.4,2.1,2.1,3.6,2.1
			s2.7-0.8,3.6-2.2C289.6,89.8,289.9,88.4,289.9,86.8z"/>
	</g>
</g>
</svg>
