<?xml version="1.0" encoding="utf-8"?>
<!-- Generator: Adobe Illustrator 22.1.0, SVG Export Plug-In . SVG Version: 6.00 Build 0)  -->
<svg version="1.1" id="Layer_1" xmlns="http://www.w3.org/2000/svg" xmlns:xlink="http://www.w3.org/1999/xlink" x="0px" y="0px"
	 viewBox="0 0 554.3 63.2" style="enable-background:new 0 0 554.3 63.2;" xml:space="preserve">
<style type="text/css">
	.st0{fill:#717072;}
</style>
<g>
	<g>
		<path class="st0" d="M51.5,46.4c-0.1,0.2-1.3,4.5-4.4,9c-2.6,3.8-5.4,7.7-9.7,7.8c-4.2,0.1-5.6-2.5-10.4-2.5
			c-4.8,0-6.4,2.4-10.4,2.6c-4.2,0.2-7.3-4.2-10-8c-5.4-7.9-9.6-22.2-4-31.9c2.8-4.8,7.7-7.8,13.1-7.9c4.1-0.1,7.9,2.7,10.4,2.7
			c2.5,0,7.2-3.4,12.1-2.9c2.1,0.1,7.8,0.8,11.6,6.3c-0.3,0.2-6.9,4-6.8,12C43.1,43.2,51.4,46.3,51.5,46.4 M35,10.1
			c2.2-2.7,3.7-6.4,3.3-10.1c-3.2,0.1-7,2.1-9.3,4.8c-2,2.4-3.8,6.2-3.4,9.8C29.2,14.8,32.8,12.8,35,10.1z"/>
	</g>
	<g>
		<path class="st0" d="M94.2,27.7l-0.9,3.1c-1.3-0.6-2.9-0.9-4.6-0.9c-2.6,0-4.7,0.8-6.2,2.4c-1.6,1.7-2.4,4-2.4,6.9
			c0,2.9,0.8,5.1,2.3,6.7c1.5,1.6,3.6,2.4,6.3,2.4c1.9,0,3.5-0.3,4.8-0.9l0.7,3.1c-1.4,0.7-3.5,1-6.2,1c-3.6,0-6.5-1.1-8.7-3.2
			c-2.2-2.2-3.3-5.2-3.3-9c0-3.9,1.2-7,3.6-9.4c2.3-2.3,5.3-3.4,9-3.4C91,26.6,92.9,27,94.2,27.7z"/>
		<path class="st0" d="M111.3,41.7c0,0.7,0,1.3-0.1,1.8H99.5c0,1.7,0.6,3,1.7,4c1,0.8,2.3,1.2,3.8,1.2c1.7,0,3.3-0.3,4.7-0.8
			l0.6,2.7c-1.7,0.7-3.6,1.1-5.9,1.1c-2.7,0-4.8-0.8-6.4-2.4c-1.5-1.6-2.3-3.7-2.3-6.4c0-2.6,0.7-4.8,2.2-6.6
			c1.5-1.9,3.6-2.8,6.1-2.8c2.5,0,4.4,0.9,5.7,2.8C110.8,37.7,111.3,39.5,111.3,41.7z M107.6,40.7c0-1.2-0.2-2.1-0.8-3
			c-0.7-1.1-1.7-1.6-3.1-1.6c-1.3,0-2.3,0.5-3.1,1.6c-0.7,0.8-1,1.8-1.2,3H107.6z"/>
		<path class="st0" d="M129.6,51.3h-3.9v-10c0-3.1-1.2-4.6-3.5-4.6c-1.2,0-2.1,0.4-2.8,1.3c-0.7,0.9-1.1,1.9-1.1,3v10.4h-3.9V38.8
			c0-1.5,0-3.2-0.1-5h3.4l0.2,2.7h0.1c0.5-0.8,1.1-1.5,2-2.1c1.1-0.7,2.2-1,3.5-1c1.6,0,3,0.5,4.1,1.6c1.3,1.3,2,3.2,2,5.8V51.3z"/>
		<path class="st0" d="M142.7,36.7h-4.2v8.5c0,2.2,0.7,3.2,2.2,3.2c0.7,0,1.3-0.1,1.7-0.2l0.1,3c-0.8,0.3-1.8,0.4-3,0.4
			c-1.5,0-2.7-0.5-3.6-1.4c-0.9-0.9-1.3-2.5-1.3-4.7v-8.8h-2.6v-2.9h2.6v-3.2l3.9-1.2v4.4h4.2V36.7z"/>
		<path class="st0" d="M155.1,37.2c-0.4-0.1-0.8-0.1-1.2-0.1c-1.4,0-2.4,0.5-3.2,1.5c-0.6,0.9-1,2.1-1,3.5v9.2h-3.9v-12
			c0-2,0-3.9-0.1-5.5h3.4l0.1,3.4h0.1c0.4-1.2,1.1-2.1,1.9-2.8c0.9-0.6,1.8-0.9,2.8-0.9c0.4,0,0.7,0,1,0.1V37.2z"/>
		<path class="st0" d="M173.6,42.4c0,2.7-0.8,4.9-2.3,6.6c-1.6,1.8-3.7,2.7-6.4,2.7c-2.6,0-4.6-0.9-6.1-2.6
			c-1.5-1.7-2.3-3.9-2.3-6.4c0-2.7,0.8-4.9,2.4-6.7c1.6-1.7,3.7-2.6,6.4-2.6c2.6,0,4.6,0.9,6.2,2.6
			C172.9,37.6,173.6,39.7,173.6,42.4z M169.6,42.5c0-1.6-0.3-3-1-4.1c-0.8-1.4-2-2.1-3.5-2.1c-1.6,0-2.7,0.7-3.6,2.1
			c-0.7,1.1-1,2.5-1,4.2c0,1.6,0.3,3,1,4.1c0.8,1.4,2,2.1,3.5,2.1c1.5,0,2.7-0.7,3.5-2.1C169.2,45.4,169.6,44,169.6,42.5z"/>
		<path class="st0" d="M201.1,51.3h-3.5l-0.2-2.8h-0.1c-1.1,2.1-3,3.2-5.6,3.2c-2.1,0-3.9-0.8-5.3-2.5c-1.4-1.7-2.1-3.8-2.1-6.4
			c0-2.8,0.8-5.1,2.3-6.9c1.5-1.6,3.3-2.4,5.4-2.4c2.4,0,4,0.8,5,2.4v-10h3.9v20.8C200.9,48.3,201,49.8,201.1,51.3z M197.1,43.9
			v-2.9c0-0.5,0-0.9-0.1-1.2c-0.2-0.9-0.7-1.7-1.4-2.4c-0.7-0.6-1.6-1-2.6-1c-1.5,0-2.6,0.6-3.4,1.7c-0.8,1.2-1.3,2.6-1.3,4.4
			c0,1.7,0.4,3.1,1.2,4.2c0.8,1.2,2,1.7,3.4,1.7c1.3,0,2.3-0.5,3.1-1.4C196.7,46.2,197.1,45.1,197.1,43.9z"/>
		<path class="st0" d="M209.6,28.6c0,0.7-0.2,1.3-0.7,1.7c-0.5,0.4-1,0.6-1.8,0.6c-0.6,0-1.2-0.2-1.6-0.7c-0.4-0.4-0.7-1-0.7-1.7
			c0-0.7,0.2-1.2,0.7-1.6c0.5-0.4,1-0.6,1.7-0.6c0.7,0,1.2,0.2,1.7,0.6C209.3,27.3,209.6,27.9,209.6,28.6z M209.1,51.3h-3.9V33.8
			h3.9V51.3z"/>
		<path class="st0" d="M241.1,51.3h-4.1l-2.3-7.1h-7.9l-2.2,7.1h-4l7.8-24.2h4.8L241.1,51.3z M233.9,41.2l-2.1-6.4
			c-0.2-0.6-0.6-2.2-1.2-4.6h-0.1c-0.2,1-0.6,2.6-1.2,4.6l-2,6.4H233.9z"/>
		<path class="st0" d="M254.7,46.2c0,1.6-0.6,2.9-1.8,3.9c-1.2,1-2.9,1.5-5,1.5c-2,0-3.7-0.4-5.1-1.2l0.8-2.9
			c1.3,0.8,2.8,1.2,4.3,1.2c2,0,3-0.7,3-2.2c0-0.6-0.2-1.2-0.7-1.6c-0.4-0.4-1.2-0.8-2.3-1.2c-3.1-1.2-4.7-2.8-4.7-5
			c0-1.5,0.6-2.8,1.7-3.8c1.2-1,2.7-1.5,4.6-1.5c1.7,0,3.2,0.3,4.4,1l-0.8,2.8c-1.1-0.7-2.3-1-3.6-1c-0.8,0-1.5,0.2-1.9,0.6
			c-0.5,0.4-0.7,0.9-0.7,1.5c0,0.6,0.2,1.1,0.7,1.5c0.4,0.4,1.2,0.8,2.4,1.2C253.2,42.1,254.7,43.9,254.7,46.2z"/>
		<path class="st0" d="M269,46.2c0,1.6-0.6,2.9-1.8,3.9c-1.2,1-2.9,1.5-5,1.5c-2,0-3.7-0.4-5.1-1.2l0.8-2.9c1.3,0.8,2.8,1.2,4.3,1.2
			c2,0,3-0.7,3-2.2c0-0.6-0.2-1.2-0.7-1.6c-0.4-0.4-1.2-0.8-2.3-1.2c-3.1-1.2-4.7-2.8-4.7-5c0-1.5,0.6-2.8,1.7-3.8
			c1.2-1,2.7-1.5,4.6-1.5c1.7,0,3.2,0.3,4.4,1l-0.8,2.8c-1.1-0.7-2.3-1-3.6-1c-0.8,0-1.5,0.2-1.9,0.6c-0.5,0.4-0.7,0.9-0.7,1.5
			c0,0.6,0.2,1.1,0.7,1.5c0.4,0.4,1.2,0.8,2.4,1.2C267.5,42.1,269,43.9,269,46.2z"/>
		<path class="st0" d="M276.5,28.6c0,0.7-0.2,1.3-0.7,1.7c-0.5,0.4-1,0.6-1.8,0.6c-0.6,0-1.2-0.2-1.6-0.7c-0.4-0.4-0.7-1-0.7-1.7
			c0-0.7,0.2-1.2,0.7-1.6c0.5-0.4,1-0.6,1.7-0.6c0.7,0,1.2,0.2,1.7,0.6C276.3,27.3,276.5,27.9,276.5,28.6z M276.1,51.3h-3.9V33.8
			h3.9V51.3z"/>
		<path class="st0" d="M291.6,46.2c0,1.6-0.6,2.9-1.8,3.9c-1.2,1-2.9,1.5-5,1.5c-2,0-3.7-0.4-5.1-1.2l0.8-2.9
			c1.3,0.8,2.8,1.2,4.3,1.2c2,0,3-0.7,3-2.2c0-0.6-0.2-1.2-0.7-1.6c-0.4-0.4-1.2-0.8-2.3-1.2c-3.1-1.2-4.7-2.8-4.7-5
			c0-1.5,0.6-2.8,1.7-3.8c1.2-1,2.7-1.5,4.6-1.5c1.7,0,3.2,0.3,4.4,1l-0.8,2.8c-1.1-0.7-2.3-1-3.6-1c-0.8,0-1.5,0.2-1.9,0.6
			c-0.5,0.4-0.7,0.9-0.7,1.5c0,0.6,0.2,1.1,0.7,1.5c0.4,0.4,1.2,0.8,2.4,1.2C290,42.1,291.6,43.9,291.6,46.2z"/>
		<path class="st0" d="M304,36.7h-4.2v8.5c0,2.2,0.7,3.2,2.2,3.2c0.7,0,1.3-0.1,1.7-0.2l0.1,3c-0.8,0.3-1.8,0.4-3,0.4
			c-1.5,0-2.7-0.5-3.6-1.4c-0.9-0.9-1.3-2.5-1.3-4.7v-8.8h-2.6v-2.9h2.6v-3.2l3.9-1.2v4.4h4.2V36.7z"/>
		<path class="st0" d="M321.3,41.7c0,0.7,0,1.3-0.1,1.8h-11.7c0,1.7,0.6,3,1.7,4c1,0.8,2.3,1.2,3.8,1.2c1.7,0,3.3-0.3,4.7-0.8
			l0.6,2.7c-1.7,0.7-3.6,1.1-5.9,1.1c-2.7,0-4.8-0.8-6.4-2.4c-1.5-1.6-2.3-3.7-2.3-6.4c0-2.6,0.7-4.8,2.2-6.6
			c1.5-1.9,3.6-2.8,6.1-2.8c2.5,0,4.4,0.9,5.7,2.8C320.8,37.7,321.3,39.5,321.3,41.7z M317.6,40.7c0-1.2-0.2-2.1-0.8-3
			c-0.7-1.1-1.7-1.6-3.1-1.6c-1.3,0-2.3,0.5-3.1,1.6c-0.7,0.8-1,1.8-1.2,3H317.6z"/>
		<path class="st0" d="M339.6,51.3h-3.9v-10c0-3.1-1.2-4.6-3.5-4.6c-1.2,0-2.1,0.4-2.8,1.3c-0.7,0.9-1.1,1.9-1.1,3v10.4h-3.9V38.8
			c0-1.5,0-3.2-0.1-5h3.4l0.2,2.7h0.1c0.5-0.8,1.1-1.5,2-2.1c1.1-0.7,2.2-1,3.5-1c1.6,0,3,0.5,4.1,1.6c1.3,1.3,2,3.2,2,5.8V51.3z"/>
		<path class="st0" d="M356.8,51.3h-14.2V49l7-9.2c0.4-0.6,1.2-1.5,2.4-2.9h-8.7v-3.1h13.4v2.4l-6.8,9.1c-0.8,1-1.6,1.9-2.4,2.9h9.4
			V51.3z"/>
		<path class="st0" d="M372.9,51.3h-3.5l-0.3-2H369c-1.2,1.6-2.9,2.4-5.1,2.4c-1.7,0-3-0.5-4-1.6c-0.9-1-1.4-2.1-1.4-3.5
			c0-2.1,0.9-3.7,2.7-4.9c1.8-1.1,4.3-1.7,7.6-1.6v-0.3c0-2.4-1.2-3.5-3.6-3.5c-1.7,0-3.3,0.4-4.6,1.3l-0.8-2.6c1.6-1,3.6-1.5,6-1.5
			c4.6,0,6.9,2.4,6.9,7.2v6.5C372.6,48.8,372.7,50.2,372.9,51.3z M368.8,45.2v-2.7c-4.3-0.1-6.5,1.1-6.5,3.5c0,0.9,0.3,1.6,0.8,2
			c0.5,0.5,1.1,0.7,1.9,0.7c0.9,0,1.7-0.3,2.4-0.8c0.7-0.5,1.2-1.2,1.3-2C368.8,45.7,368.8,45.5,368.8,45.2z"/>
		<path class="st0" d="M404.3,51.3h-4.1l-2.3-7.1H390l-2.2,7.1h-4l7.8-24.2h4.8L404.3,51.3z M397.2,41.2l-2.1-6.4
			c-0.2-0.6-0.6-2.2-1.2-4.6h-0.1c-0.2,1-0.6,2.6-1.2,4.6l-2,6.4H397.2z"/>
		<path class="st0" d="M421.5,51.3H418l-0.2-2.7h-0.1c-1.2,2-3.1,3-5.5,3c-1.7,0-3.1-0.5-4.1-1.6c-1.2-1.3-1.8-3.3-1.8-6V33.8h3.9
			v9.6c0,3.4,1.2,5,3.5,5c1.7,0,2.9-0.8,3.6-2.5c0.2-0.4,0.3-0.9,0.3-1.5V33.8h3.9v12.5C421.3,47.9,421.3,49.6,421.5,51.3z"/>
		<path class="st0" d="M434.9,36.7h-4.2v8.5c0,2.2,0.7,3.2,2.2,3.2c0.7,0,1.3-0.1,1.7-0.2l0.1,3c-0.8,0.3-1.8,0.4-3,0.4
			c-1.5,0-2.7-0.5-3.6-1.4c-0.9-0.9-1.3-2.5-1.3-4.7v-8.8h-2.6v-2.9h2.6v-3.2l3.9-1.2v4.4h4.2V36.7z"/>
		<path class="st0" d="M453.8,42.4c0,2.7-0.8,4.9-2.3,6.6c-1.6,1.8-3.7,2.7-6.4,2.7c-2.6,0-4.6-0.9-6.1-2.6
			c-1.5-1.7-2.3-3.9-2.3-6.4c0-2.7,0.8-4.9,2.4-6.7c1.6-1.7,3.7-2.6,6.4-2.6c2.6,0,4.6,0.9,6.2,2.6
			C453.1,37.6,453.8,39.7,453.8,42.4z M449.8,42.5c0-1.6-0.3-3-1-4.1c-0.8-1.4-2-2.1-3.5-2.1c-1.6,0-2.7,0.7-3.6,2.1
			c-0.7,1.1-1,2.5-1,4.2c0,1.6,0.3,3,1,4.1c0.8,1.4,2,2.1,3.5,2.1c1.5,0,2.7-0.7,3.5-2.1C449.4,45.4,449.8,44,449.8,42.5z"/>
		<path class="st0" d="M466.2,37.2c-0.4-0.1-0.8-0.1-1.2-0.1c-1.4,0-2.4,0.5-3.2,1.5c-0.6,0.9-1,2.1-1,3.5v9.2H457v-12
			c0-2,0-3.9-0.1-5.5h3.4l0.1,3.4h0.1c0.4-1.2,1.1-2.1,1.9-2.8c0.9-0.6,1.8-0.9,2.8-0.9c0.4,0,0.7,0,1,0.1V37.2z"/>
		<path class="st0" d="M473.4,28.6c0,0.7-0.2,1.3-0.7,1.7c-0.5,0.4-1,0.6-1.8,0.6c-0.6,0-1.2-0.2-1.6-0.7c-0.4-0.4-0.7-1-0.7-1.7
			c0-0.7,0.2-1.2,0.7-1.6c0.5-0.4,1-0.6,1.7-0.6c0.7,0,1.2,0.2,1.7,0.6C473.2,27.3,473.4,27.9,473.4,28.6z M473,51.3h-3.9V33.8h3.9
			V51.3z"/>
		<path class="st0" d="M490.2,51.3h-14.2V49l7-9.2c0.4-0.6,1.2-1.5,2.4-2.9h-8.7v-3.1H490v2.4l-6.8,9.1c-0.8,1-1.6,1.9-2.4,2.9h9.4
			V51.3z"/>
		<path class="st0" d="M506.5,51.3h-14.2V49l7-9.2c0.4-0.6,1.2-1.5,2.4-2.9H493v-3.1h13.4v2.4l-6.8,9.1c-0.8,1-1.6,1.9-2.4,2.9h9.4
			V51.3z"/>
		<path class="st0" d="M522.7,51.3h-3.5l-0.3-2h-0.1c-1.2,1.6-2.9,2.4-5.1,2.4c-1.7,0-3-0.5-4-1.6c-0.9-1-1.4-2.1-1.4-3.5
			c0-2.1,0.9-3.7,2.7-4.9c1.8-1.1,4.3-1.7,7.6-1.6v-0.3c0-2.4-1.2-3.5-3.6-3.5c-1.7,0-3.3,0.4-4.6,1.3l-0.8-2.6c1.6-1,3.6-1.5,6-1.5
			c4.6,0,6.9,2.4,6.9,7.2v6.5C522.4,48.8,522.5,50.2,522.7,51.3z M518.6,45.2v-2.7c-4.3-0.1-6.5,1.1-6.5,3.5c0,0.9,0.3,1.6,0.8,2
			c0.5,0.5,1.1,0.7,1.9,0.7c0.9,0,1.7-0.3,2.4-0.8c0.7-0.5,1.2-1.2,1.3-2C518.6,45.7,518.6,45.5,518.6,45.2z"/>
		<path class="st0" d="M535.5,36.7h-4.2v8.5c0,2.2,0.7,3.2,2.2,3.2c0.7,0,1.3-0.1,1.7-0.2l0.1,3c-0.8,0.3-1.8,0.4-3,0.4
			c-1.5,0-2.7-0.5-3.6-1.4c-0.9-0.9-1.3-2.5-1.3-4.7v-8.8h-2.6v-2.9h2.6v-3.2l3.9-1.2v4.4h4.2V36.7z"/>
		<path class="st0" d="M554.3,42.4c0,2.7-0.8,4.9-2.3,6.6c-1.6,1.8-3.7,2.7-6.4,2.7c-2.6,0-4.6-0.9-6.1-2.6
			c-1.5-1.7-2.3-3.9-2.3-6.4c0-2.7,0.8-4.9,2.4-6.7c1.6-1.7,3.7-2.6,6.4-2.6c2.6,0,4.6,0.9,6.2,2.6
			C553.6,37.6,554.3,39.7,554.3,42.4z M550.3,42.5c0-1.6-0.3-3-1-4.1c-0.8-1.4-2-2.1-3.5-2.1c-1.6,0-2.7,0.7-3.6,2.1
			c-0.7,1.1-1,2.5-1,4.2c0,1.6,0.3,3,1,4.1c0.8,1.4,2,2.1,3.5,2.1c1.5,0,2.7-0.7,3.5-2.1C550,45.4,550.3,44,550.3,42.5z"/>
	</g>
</g>
</svg>
