<?xml version="1.0" encoding="utf-8"?>
<!-- Generator: Adobe Illustrator 22.1.0, SVG Export Plug-In . SVG Version: 6.00 Build 0)  -->
<svg version="1.1" id="Livello_1" xmlns="http://www.w3.org/2000/svg" xmlns:xlink="http://www.w3.org/1999/xlink" x="0px" y="0px"
	 viewBox="0 0 37.9 17.8" style="enable-background:new 0 0 37.9 17.8;" xml:space="preserve">
<style type="text/css">
	.st0{fill:#003574;}
</style>
<g>
	<path class="st0" d="M0,17.7h1.8V5.4h1.8v12.2h1.8V5.4h1.8v12.2h2V5.4c0-0.9-0.8-1.8-1.8-1.8H0.2v14L0,17.7L0,17.7z"/>
	<path class="st0" d="M11,15.1c0,1.5,1.2,2.7,2.7,2.7s2.7-1.2,2.7-2.7V6.3c0-1.5-1.2-2.7-2.7-2.7S11,4.8,11,6.3
		C11,6.3,11,15.1,11,15.1z M12.8,5.4h1.8v10.4h-1.8V5.4z"/>
	<path class="st0" d="M21.7,7.3h1.8v-1c0-1.5-1.2-2.7-2.7-2.7S18,4.7,18,6.3v3.5c0,0.9,0.8,1.8,1.8,1.8h1.8v4.3h-1.8v-1.8H18v1
		c0,1.5,1.2,2.7,2.7,2.7s2.7-1.2,2.7-2.7v-3.5c0-0.9-0.8-1.8-1.8-1.8h-1.8V5.5h1.8v1.8C21.6,7.3,21.7,7.3,21.7,7.3z"/>
	<path class="st0" d="M25.1,15.1c0,1.5,1.2,2.7,2.7,2.7s2.7-1.2,2.7-2.7v-4.4c0-1.2-0.5-1.6-0.9-1.8c0.5-0.2,0.9-0.7,0.9-1.8V2.7
		c0-1.5-1.2-2.7-2.7-2.7s-2.7,1.2-2.7,2.7v4.4c0,1.2,0.5,1.6,0.9,1.8c-0.5,0.2-0.9,0.7-0.9,1.8C25.1,10.7,25.1,15.1,25.1,15.1z
		 M26.9,2h1.8v5.8h-1.8V2z M26.9,10.1h1.8v5.9h-1.8C26.9,15.9,26.9,10.1,26.9,10.1z"/>
	<path class="st0" d="M32.5,15.1c0,1.5,1.2,2.7,2.7,2.7c1.5,0,2.7-1.2,2.7-2.7V2.7c0-1.5-1.2-2.7-2.7-2.7c-1.5,0-2.7,1.2-2.7,2.7
		V15.1z M34.2,2H36v14h-1.8V2z"/>
</g>
</svg>
